<?xml version="1.0" encoding="UTF-8" standalone="no"?>
<!-- Created with Inkscape (http://www.inkscape.org/) -->

<svg
   version="1.1"
   id="svg3342"
   width="1200.7433"
   height="1200.6101"
   xmlns:inkscape="http://www.inkscape.org/namespaces/inkscape"
   xmlns:sodipodi="http://sodipodi.sourceforge.net/DTD/sodipodi-0.dtd"
   xmlns="http://www.w3.org/2000/svg"
   xmlns:svg="http://www.w3.org/2000/svg">
  <defs
     id="defs3346" />
  <sodipodi:namedview
     id="namedview3344"
     pagecolor="#ffffff"
     bordercolor="#666666"
     borderopacity="1.0"
     inkscape:pageshadow="2"
     inkscape:pageopacity="0.0"
     inkscape:pagecheckerboard="0" />
  <inkscape:clipboard
     style="font-variation-settings:normal;opacity:1;vector-effect:none;fill:#111111;fill-opacity:1;stroke-width:3.00173942;stroke-linecap:butt;stroke-linejoin:miter;stroke-miterlimit:4;stroke-dasharray:none;stroke-dashoffset:0;stroke-opacity:1;-inkscape-stroke:none;stop-color:#000000;stop-opacity:1"
     min="-0.37163195,-0.30505613"
     max="1200.3716,1200.3051"
     geom-min="-0.37163195,-0.30505613"
     geom-max="1200.3716,1200.3051" />
  <g
     id="g3348"
     transform="matrix(3.7795276,0,0,3.7795276,0.37163195,0.30505613)">
    <g
       id="g2346"
       transform="matrix(3.0017432,0,0,3.0017432,106.48987,-474.63016)">
      <path
         style="fill:#606060;fill-opacity:1;stroke-width:0.264583"
         d="m 33.237331,211.6599 c 0.547714,-0.1184 0.591907,-0.29384 0.677415,-2.68918 0.09148,-2.56251 0.09148,-2.56251 0.07552,0.0833 -0.01585,2.62967 -0.02,2.6461 -0.677415,2.68917 -0.564529,0.037 -0.575596,0.0248 -0.07552,-0.0833 z"
         id="path2352" />
      <path
         style="fill:#494949;fill-opacity:1;stroke-width:0.264583"
         d="m 32.615734,209.05404 c 7.94e-4,-1.45521 0.04512,-2.01676 0.09873,-1.2479 0.05362,0.76886 0.05305,1.95949 -0.0013,2.64583 -0.05431,0.68635 -0.09817,0.0573 -0.09748,-1.39793 z"
         id="path2350" />
      <path
         style="fill:#111111;fill-opacity:1;stroke-width:0.264583"
         d="m -10.640679,263.76084 c -13.71845,-1.38909 -23.20431,-10.60944 -24.59823,-23.90973 -0.36122,-3.44666 -0.35906,-54.13477 0.002,-57.65771 1.32933,-12.95395 10.86953,-22.49415 23.82348,-23.82348 3.62033,-0.37151 54.015909,-0.37151 57.636242,0 13.148595,1.3493 22.649084,11.02853 23.850078,24.29877 0.514792,5.68813 0.183229,57.68081 -0.38304,60.0652 -2.555862,10.76195 -10.153462,18.34964 -20.610213,20.58334 -2.010725,0.42951 -55.906257,0.82985 -59.720777,0.44361 z"
         id="path2348"
         sodipodi:nodetypes="cscscssscc" />
    </g>
  </g>
</svg>
<?xml version="1.0" encoding="UTF-8" standalone="no"?>
<!-- Created with Inkscape (http://www.inkscape.org/) -->

<svg
   version="1.1"
   id="svg3342"
   width="1200.7433"
   height="1200.6101"
   xmlns:inkscape="http://www.inkscape.org/namespaces/inkscape"
   xmlns:sodipodi="http://sodipodi.sourceforge.net/DTD/sodipodi-0.dtd"
   xmlns="http://www.w3.org/2000/svg"
   xmlns:svg="http://www.w3.org/2000/svg">
  <defs
     id="defs3346" />
  <sodipodi:namedview
     id="namedview3344"
     pagecolor="#ffffff"
     bordercolor="#666666"
     borderopacity="1.0"
     inkscape:pageshadow="2"
     inkscape:pageopacity="0.0"
     inkscape:pagecheckerboard="0" />
  <inkscape:clipboard
     style="font-variation-settings:normal;opacity:1;vector-effect:none;fill:#111111;fill-opacity:1;stroke-width:3.00173942;stroke-linecap:butt;stroke-linejoin:miter;stroke-miterlimit:4;stroke-dasharray:none;stroke-dashoffset:0;stroke-opacity:1;-inkscape-stroke:none;stop-color:#000000;stop-opacity:1"
     min="-0.37163195,-0.30505613"
     max="1200.3716,1200.3051"
     geom-min="-0.37163195,-0.30505613"
     geom-max="1200.3716,1200.3051" />
  <g
     id="g3348"
     transform="matrix(3.7795276,0,0,3.7795276,0.37163195,0.30505613)">
    <g
       id="g2346"
       transform="matrix(3.0017432,0,0,3.0017432,106.48987,-474.63016)">
      <path
         style="fill:#606060;fill-opacity:1;stroke-width:0.264583"
         d="m 33.237331,211.6599 c 0.547714,-0.1184 0.591907,-0.29384 0.677415,-2.68918 0.09148,-2.56251 0.09148,-2.56251 0.07552,0.0833 -0.01585,2.62967 -0.02,2.6461 -0.677415,2.68917 -0.564529,0.037 -0.575596,0.0248 -0.07552,-0.0833 z"
         id="path2352" />
      <path
         style="fill:#494949;fill-opacity:1;stroke-width:0.264583"
         d="m 32.615734,209.05404 c 7.94e-4,-1.45521 0.04512,-2.01676 0.09873,-1.2479 0.05362,0.76886 0.05305,1.95949 -0.0013,2.64583 -0.05431,0.68635 -0.09817,0.0573 -0.09748,-1.39793 z"
         id="path2350" />
      <path
         style="fill:#111111;fill-opacity:1;stroke-width:0.264583"
         d="m -10.640679,263.76084 c -13.71845,-1.38909 -23.20431,-10.60944 -24.59823,-23.90973 -0.36122,-3.44666 -0.35906,-54.13477 0.002,-57.65771 1.32933,-12.95395 10.86953,-22.49415 23.82348,-23.82348 3.62033,-0.37151 54.015909,-0.37151 57.636242,0 13.148595,1.3493 22.649084,11.02853 23.850078,24.29877 0.514792,5.68813 0.183229,57.68081 -0.38304,60.0652 -2.555862,10.76195 -10.153462,18.34964 -20.610213,20.58334 -2.010725,0.42951 -55.906257,0.82985 -59.720777,0.44361 z"
         id="path2348"
         sodipodi:nodetypes="cscscssscc" />
    </g>
  </g>
</svg>
