<?xml version="1.0" encoding="UTF-8" standalone="no"?>
<!-- Created with Inkscape (http://www.inkscape.org/) -->

<svg
   width="1200"
   height="1200"
   viewBox="0 0 317.49998 317.50001"
   version="1.1"
   id="svg5"
   inkscape:export-filename="/home/adrian/Documents/Projects/personal-website/filled-empty-icon.png"
   inkscape:export-xdpi="96"
   inkscape:export-ydpi="96"
   inkscape:version="1.1.1 (3bf5ae0d25, 2021-09-20)"
   sodipodi:docname="brand-logo.svg"
   xmlns:inkscape="http://www.inkscape.org/namespaces/inkscape"
   xmlns:sodipodi="http://sodipodi.sourceforge.net/DTD/sodipodi-0.dtd"
   xmlns="http://www.w3.org/2000/svg"
   xmlns:svg="http://www.w3.org/2000/svg">
  <sodipodi:namedview
     id="namedview7"
     pagecolor="#ffffff"
     bordercolor="#666666"
     borderopacity="1.0"
     inkscape:pageshadow="2"
     inkscape:pageopacity="0.0"
     inkscape:pagecheckerboard="0"
     inkscape:document-units="mm"
     showgrid="false"
     units="px"
     width="500px"
     inkscape:zoom="0.34552223"
     inkscape:cx="978.2294"
     inkscape:cy="612.11692"
     inkscape:window-width="1920"
     inkscape:window-height="966"
     inkscape:window-x="0"
     inkscape:window-y="0"
     inkscape:window-maximized="1"
     inkscape:current-layer="layer1" />
  <defs
     id="defs2" />
  <g
     inkscape:label="Layer 1"
     inkscape:groupmode="layer"
     id="layer1">
    <rect
       style="fill:#111111;fill-opacity:1;stroke-width:1"
       id="rect3142"
       width="350.12979"
       height="348.81967"
       x="358.01761"
       y="-286.14789" />
    <g
       id="g2346"
       transform="matrix(3.0017432,0,0,3.0017432,-248.64422,-608.29525)">
      <path
         style="fill:#606060;fill-opacity:1;stroke-width:0.264583"
         d="m 33.237331,211.6599 c 0.547714,-0.1184 0.591907,-0.29384 0.677415,-2.68918 0.09148,-2.56251 0.09148,-2.56251 0.07552,0.0833 -0.01585,2.62967 -0.02,2.6461 -0.677415,2.68917 -0.564529,0.037 -0.575596,0.0248 -0.07552,-0.0833 z"
         id="path2352" />
      <path
         style="fill:#494949;fill-opacity:1;stroke-width:0.264583"
         d="m 32.615734,209.05404 c 7.94e-4,-1.45521 0.04512,-2.01676 0.09873,-1.2479 0.05362,0.76886 0.05305,1.95949 -0.0013,2.64583 -0.05431,0.68635 -0.09817,0.0573 -0.09748,-1.39793 z"
         id="path2350" />
      <path
         style="fill:#111111;fill-opacity:1;stroke-width:0.264583"
         d="m -10.640679,263.76084 c -13.71845,-1.38909 -23.20431,-10.60944 -24.59823,-23.90973 -0.36122,-3.44666 -0.35906,-54.13477 0.002,-57.65771 1.32933,-12.95395 10.86953,-22.49415 23.82348,-23.82348 3.62033,-0.37151 54.015909,-0.37151 57.636242,0 13.148595,1.3493 22.649084,11.02853 23.850078,24.29877 0.514792,5.68813 0.183229,57.68081 -0.38304,60.0652 -2.555862,10.76195 -10.153462,18.34964 -20.610213,20.58334 -2.010725,0.42951 -55.906257,0.82985 -59.720777,0.44361 z"
         id="path2348"
         sodipodi:nodetypes="cscscssscc" />
    </g>
    <g
       id="g2228"
       style="fill:#3490de;fill-opacity:1"
       transform="matrix(2.6344069,0,0,2.6344069,10.408184,34.594645)">
      <path
         id="path1971"
         style="fill:#3490de;fill-opacity:1;stroke-width:0.999999"
         d="m 307.8457,140.40039 c -19.25945,0.28683 -44.06003,5.63262 -68.10937,15.75781 -21.78804,9.17314 -32.34064,9.38301 -51.2461,1.01368 -45.00052,-19.92152 -96.828904,-22.47291 -104.078121,-5.12305 -9.122936,21.83422 14.703568,55.68041 43.578121,61.90429 32.53908,7.01383 63.51832,-7.6968 74.61719,-35.43554 1.97858,-4.94498 3.78189,-6.00391 10.23633,-6.00391 7.27937,0 7.72566,0.36021 12.85547,10.36133 24.09352,46.97291 97.81741,42.83961 114.95703,-6.44531 3.00927,-8.65319 3.41982,-19.91677 0.9043,-24.78125 -4.04133,-7.81507 -16.72122,-11.50113 -33.71485,-11.24805 z m -184.17578,8.30859 c 18.01089,-0.0979 42.35783,5.19239 65.82031,15.5586 10.80827,4.77532 10.83332,4.84793 5.46094,15.94726 -7.13559,14.74213 -18.22987,23.36617 -34.46094,26.78907 -34.14269,7.20019 -71.786862,-20.12988 -64.429683,-46.77539 2.114232,-7.65712 12.686073,-11.43841 27.609373,-11.51954 z m 175.32031,0.4004 c 26.28513,-0.15141 33.78254,4.57903 30.98829,19.55273 -3.35927,18.00147 -18.49119,33.49058 -37.44727,38.33008 -24.77289,6.32455 -50.4245,-4.48785 -61.0625,-25.73828 -5.27281,-10.53294 -5.55277,-12.85997 -1.72852,-14.43164 35.95712,-14.77735 46.93253,-17.58439 69.25,-17.71289 z"
         transform="scale(0.26458333)" />
      <path
         style="fill:#3490de;fill-opacity:1;stroke-width:0.264583"
         d="m 74.610151,44.85061 c 0,-2.91041 0,-2.91041 0.661458,-2.91041 0.661459,0 0.661459,0 0.661459,2.91041 0,2.91042 0,2.91042 -0.661459,2.91042 -0.661458,0 -0.661458,0 -0.661458,-2.91042 z"
         id="path1985" />
      <path
         style="fill:#3490de;fill-opacity:1;stroke-width:0.264583"
         d="m 73.150024,52.15481 c -3.288048,-1.43269 -3.869679,-5.87216 -1.100677,-8.40125 1.366189,-1.24782 1.846622,-0.009 0.552191,1.42331 -1.090261,1.20678 -1.243346,2.94681 -0.383347,4.35725 1.73863,2.85145 6.346653,1.7925 6.649116,-1.52801 0.121653,-1.33552 -0.04992,-1.85994 -0.925626,-2.82924 -1.39854,-1.54802 -0.765667,-2.7173 0.714941,-1.3209 4.022397,3.79361 -0.433689,10.50925 -5.506598,8.29884 z"
         id="path1983" />
      <path
         style="fill:#3490de;fill-opacity:1;stroke-width:0.264583"
         d="m 41.008069,50.57706 c 0,-0.81859 0.158682,-1.00518 1.719792,-2.02228 2.058929,-1.34145 2.058048,-1.00573 0.0063,-2.40407 -1.521108,-1.03669 -1.714201,-1.26583 -1.719791,-2.04085 -0.0072,-1.00026 -0.196036,-1.0677 2.721964,0.97224 2.949014,2.06161 2.909633,2.60583 -0.347012,4.7956 -2.38125,1.60115 -2.38125,1.60115 -2.38125,0.69936 z"
         id="path1979" />
      <path
         style="fill:#3490de;fill-opacity:1;stroke-width:0.264583"
         d="m 32.409112,49.91257 c -3.104187,-2.21235 -3.108905,-2.81761 -0.03925,-5.03362 2.589136,-1.86913 2.55279,-1.85709 2.55279,-0.84531 0,0.64608 -0.277754,0.96872 -1.719792,1.99774 -0.945885,0.67497 -1.719791,1.27029 -1.719791,1.32292 0,0.0526 0.773906,0.64794 1.719791,1.32292 1.450557,1.03509 1.719792,1.34938 1.719792,2.0076 0,1.0098 -0.02302,1.00273 -2.51354,-0.77225 z"
         id="path1977" />
      <path
         style="fill:#3490de;fill-opacity:1;stroke-width:0.264583"
         d="m 36.530624,49.54697 c 0.270766,-1.20055 0.699018,-3.16508 0.951672,-4.36563 0.459372,-2.18281 0.459372,-2.18281 1.331116,-2.18281 0.479456,0 0.871741,0.1063 0.871741,0.23622 0,0.19027 -1.094243,5.20682 -1.723136,7.89972 -0.110278,0.4722 -0.323562,0.59531 -1.031362,0.59531 -0.892333,0 -0.892333,0 -0.400031,-2.18281 z"
         id="path1975" />
    </g>
  </g>
</svg>
